<svg xmlns="http://www.w3.org/2000/svg" xmlns:xlink="http://www.w3.org/1999/xlink" width="712" height="739" viewBox="0 0 712 739">
  <defs>
    <linearGradient id="linear-gradient" x1="0.358" y1="0.859" x2="0.377" y2="0.065" gradientUnits="objectBoundingBox">
      <stop offset="0" stop-color="#21d4fd"/>
      <stop offset="1" stop-color="#b721ff"/>
    </linearGradient>
    <clipPath id="clip-path">
      <rect id="Rectangle_121" data-name="Rectangle 121" width="606" height="695" transform="translate(0.401 0.146)" stroke="#000" stroke-width="0.5" fill="url(#linear-gradient)"/>
    </clipPath>
  </defs>
  <g id="Group_51" data-name="Group 51" transform="translate(-542 -228.99)">
    <path id="Subtraction_6" data-name="Subtraction 6" d="M296.5,595a300.476,300.476,0,0,1-30.316-1.536,297.316,297.316,0,0,1-29.44-4.508A294.362,294.362,0,0,1,130.724,544.19,297.323,297.323,0,0,1,6.024,357.457c-1.98-9.712-3.492-19.652-4.493-29.539a302.945,302.945,0,0,1,0-60.836c1-9.891,2.513-19.829,4.493-29.537A296.026,296.026,0,0,1,266.186,1.536a300.012,300.012,0,0,1,60.631,0,295.757,295.757,0,0,1,179.34,85.6,296.946,296.946,0,0,1,80.818,150.411c1.98,9.7,3.492,19.641,4.493,29.537a302.939,302.939,0,0,1,0,60.836c-1,9.893-2.513,19.831-4.493,29.539A296.023,296.023,0,0,1,326.817,593.464,300.476,300.476,0,0,1,296.5,595ZM296.09,20.518c-151.972,0-275.611,124.068-275.611,276.568S144.117,573.663,296.09,573.663,571.7,449.592,571.7,297.087,448.064,20.518,296.09,20.518Z" transform="translate(602 287.99)" fill="#21d4fd"/>
    <g id="Ellipse_148" data-name="Ellipse 148" transform="translate(1254 228.99) rotate(90)" fill="none" stroke="#b721ff" stroke-width="5">
      <ellipse cx="355.5" cy="356" rx="355.5" ry="356" stroke="none"/>
      <ellipse cx="355.5" cy="356" rx="353" ry="353.5" fill="none"/>
    </g>
    <g id="Mask_Group_5" data-name="Mask Group 5" transform="translate(609.599 272.843)" clip-path="url(#clip-path)">
      <g id="Layer_2" transform="translate(5.858 18.303)">
        <path id="Path_1215" data-name="Path 1215" d="M260.191,259.674l74.261-76.569,45.22,20.889L361.32,230.718l12.8,36.375,28.685-1.488,14.4,5.7L397.2,285.927l.3,10.278,17.582-14.213,46.307-10.239,32.063,11.727-.138,3.328-15.706,1.37,10.984-3.72-24.457.92-35.718,14.546-24.991,25.8,15.725,9.985,18.195,8.321,23.667-2.76-8.87,27.82,13.137,14.918-5.907,14.253,13.058,8.5,1.719,10.827L410.61,455.9l-32.6-13-18.708,10.9-18.787-10.9-33.426,13L189.447,385.578l24.813-13.469-4.6-21.144L234,332.8l57.923,10.983,23.114-18.012-24.714-25.392-34.3-15.036-18-2.819,12.229-12.608,15.508,10.141-15.014-.548v.744l18.531.92L307.7,300.376l6.835,16.641.83-.392-4.544-11.316,22.047,12.236-4.8,19.774,2.39,11.747L311.5,369.524l1.442,13.509,20.842,17.6-.731,5.012,6.519-.2,4.978-2.78,14.955,4.4,14.165-4.562,5.67,3h6.124v-5.443l-10.865-62.1h-.929l10.826,61.768-.059,4.934-4.761-.1-5.946-3.035-14.224,4.5-15.014-4.366-5.038,2.8-5.512.333,13.533-92.055-26.156-16.093-.474-10.435L297.549,268.6Z" transform="translate(-60.523 -26.777)" stroke="#000" stroke-miterlimit="10" stroke-width="0.5" fill="url(#linear-gradient)"/>
        <path id="Path_1216" data-name="Path 1216" d="M126.553,380.675,219.681,96.8,362.157,83.035l-39.373,34.359,13.394,26L225.429,181.765l-98.876,198.91" transform="translate(-54.446 -16.294)" stroke="#000" stroke-miterlimit="10" stroke-width="0.5" fill="url(#linear-gradient)"/>
        <path id="Path_1217" data-name="Path 1217" d="M125.159,377.021,112.12,302.038l46.366-92.8-7.645-21.34L199.5,66.91l85.107-18.755,81.057,27.37-4.287,3.857L217.911,92.772,125.159,377.021" transform="translate(-53.051 -12.64)" stroke="#000" stroke-miterlimit="10" stroke-width="0.5" fill="url(#linear-gradient)"/>
        <path id="Path_1218" data-name="Path 1218" d="M111.361,297.883,104.269,258,180.012,46.7,316.838,8.485l68.927,45.068L364.9,71.369,283.846,44,198.74,62.754l-48.658,120.99,7.645,21.34Z" transform="translate(-52.292 -8.485)" stroke="#000" stroke-miterlimit="10" stroke-width="0.5" fill="url(#linear-gradient)"/>
        <path id="Path_1219" data-name="Path 1219" d="M408.907,58.826,427.3,70.965l-71.574,43.756,30.562,16.25-22.6,24.374-19.914-40.487Z" transform="translate(-75.435 -13.758)" stroke="#000" stroke-miterlimit="10" stroke-width="0.5" fill="url(#linear-gradient)"/>
        <path id="Path_1220" data-name="Path 1220" d="M390,96.579l57.212-11.766,67.7,13.7L451.186,59.635Z" transform="translate(-79.902 -13.843)" stroke="#000" stroke-miterlimit="10" stroke-width="0.5" fill="url(#linear-gradient)"/>
        <path id="Path_1221" data-name="Path 1221" d="M386.815,100.9l28.527,3.387L391.6,116.936l32.063.783L384.8,133.909,357,119.128Z" transform="translate(-76.713 -18.166)" stroke="#000" stroke-miterlimit="10" stroke-width="0.5" fill="url(#linear-gradient)"/>
        <path id="Path_1222" data-name="Path 1222" d="M126.553,387.738,342.7,164.943l-6.519-14.488L225.429,188.828Z" transform="translate(-54.446 -23.357)" stroke="#000" stroke-miterlimit="10" stroke-width="0.5" fill="url(#linear-gradient)"/>
        <path id="Path_1223" data-name="Path 1223" d="M126.553,380.675,219.305,96.426,362.769,83.035l-39.985,34.359,13.394,26L225.429,181.765Z" transform="translate(-54.446 -16.294)" stroke="#000" stroke-miterlimit="10" stroke-width="0.5" fill="url(#linear-gradient)"/>
        <path id="Path_1224" data-name="Path 1224" d="M387.773,132.533l38.859-16.191-32.063-.783,23.746-12.647-28.527-3.387L447,87.758l67.7,13.7,23.568,14.429,6.895,167.781-13.216-14.292,3.971,50.178L621.5,423.595l-57.35,116.84,28.744-86.906-83.171-114.9,23.568-95.481-8.752-71.6-14.046,24.668Z" transform="translate(-79.686 -16.789)" stroke="#000" stroke-miterlimit="10" stroke-width="0.5" fill="url(#linear-gradient)"/>
        <path id="Path_1225" data-name="Path 1225" d="M523.538,206.024l14.046-24.668,8.752,71.6-23.568,95.481,6.2-139.589Z" transform="translate(-92.73 -26.594)" stroke="#000" stroke-miterlimit="10" stroke-width="0.5" fill="url(#linear-gradient)"/>
        <path id="Path_1226" data-name="Path 1226" d="M547.369,290.633l13.216,14.292,1.067,30.933,75.268,108.989L551.34,340.81Z" transform="translate(-95.107 -38.041)" stroke="#000" stroke-miterlimit="10" stroke-width="0.5" fill="url(#linear-gradient)"/>
        <path id="Path_1227" data-name="Path 1227" d="M467.615,65.7l63.85-.1,56.678,59.477,20.783,80.993-19-9.828,5.057-15.975-48.045-43.8-.948-22.906Z" transform="translate(-87.401 -14.469)" stroke="#000" stroke-miterlimit="10" stroke-width="0.5" fill="url(#linear-gradient)"/>
        <path id="Path_1228" data-name="Path 1228" d="M600.933,132.042l18.116,19.421,24.813,174.731-39.965-66.7-3.912-47.045,2.726-9.241,19,9.828Z" transform="translate(-100.191 -21.428)" stroke="#000" stroke-miterlimit="10" stroke-width="0.5" fill="url(#linear-gradient)"/>
        <path id="Path_1229" data-name="Path 1229" d="M555.417,144.77l27.8,25.334,6.717,62.238-27.5,88.237Z" transform="translate(-95.885 -22.761)" stroke="#000" stroke-miterlimit="10" stroke-width="0.5" fill="url(#linear-gradient)"/>
        <path id="Path_1230" data-name="Path 1230" d="M586.186,173.068l20.249,18.462L592.9,235.305Z" transform="translate(-98.858 -25.726)" stroke="#000" stroke-miterlimit="10" stroke-width="0.5" fill="url(#linear-gradient)"/>
        <path id="Path_1231" data-name="Path 1231" d="M590.912,242.588l11.438,105.23L565.586,323.8Z" transform="translate(-96.867 -33.008)" stroke="#000" stroke-miterlimit="10" stroke-width="0.5" fill="url(#linear-gradient)"/>
        <path id="Path_1232" data-name="Path 1232" d="M590.68,240.416l5.749-18.56,14.3,175.632L563.18,328.653l2.173-7.028,36.765,24.022Z" transform="translate(-96.635 -30.836)" stroke="#000" stroke-miterlimit="10" stroke-width="0.5" fill="url(#linear-gradient)"/>
        <path id="Path_1233" data-name="Path 1233" d="M604.315,274.406l61.815,105L608.5,326.894Z" transform="translate(-100.609 -36.341)" stroke="#000" stroke-miterlimit="10" stroke-width="0.5" fill="url(#linear-gradient)"/>
        <path id="Path_1234" data-name="Path 1234" d="M608.951,333.036l32.992,30.071-9.384,18.6H619.342l-8.515-25.471Z" transform="translate(-101.057 -42.483)" stroke="#000" stroke-miterlimit="10" stroke-width="0.5" fill="url(#linear-gradient)"/>
        <path id="Path_1235" data-name="Path 1235" d="M611.029,358.95l8.515,25.471H632.76l-15.627,30.032-1.778-2.6Z" transform="translate(-101.258 -45.197)" stroke="#000" stroke-miterlimit="10" stroke-width="0.5" fill="url(#linear-gradient)"/>
        <path id="Path_1236" data-name="Path 1236" d="M386.885,139.412l-36.923,39.116,45.22,20.889-18.353,26.724,12.8,36.375,28.685-1.488,14.4,5.7,4.01-2.9,44.825-10.474,27.934,13.822,2.786-62.727Z" transform="translate(-76.033 -22.2)" stroke="#000" stroke-miterlimit="10" stroke-width="0.5" fill="url(#linear-gradient)"/>
        <path id="Path_1237" data-name="Path 1237" d="M419.713,304.961l-.3-10.278,20.012-14.625,4.01-2.9,44.825-10.474L516.2,280.509l-.119,2.663-25.564-9.162L446.8,283.073Z" transform="translate(-82.744 -35.532)" stroke="#000" stroke-miterlimit="10" stroke-width="0.5" fill="url(#linear-gradient)"/>
        <path id="Path_1238" data-name="Path 1238" d="M439.207,291.6l46.307-10.239,32.063,11.727.415-9.065-25.564-9.162L448.71,283.93Z" transform="translate(-84.656 -36.389)" stroke="#000" stroke-miterlimit="10" stroke-width="0.5" fill="url(#linear-gradient)"/>
        <path id="Path_1239" data-name="Path 1239" d="M421.8,316.673h0l49.725-24.962,18.373-1.057v.881l-18.175,1.135-38.642,19.284L425.593,328.6l-.79-.489,6.914-15.447-9.364,4.62Z" transform="translate(-82.974 -38.043)" fill="url(#linear-gradient)"/>
        <path id="Path_1240" data-name="Path 1240" d="M432.431,316.829l.435.724,10.451-5.051L425.3,335.408l.533.529,19.3-24.413,12.6-6.226-.4-.822Z" transform="translate(-83.312 -39.491)" fill="url(#linear-gradient)"/>
        <path id="Path_1241" data-name="Path 1241" d="M493.507,297.239l24.457-.92-10.984,3.72,15.706-1.37-.415,9.4Z" transform="translate(-89.903 -38.636)" stroke="#000" stroke-miterlimit="10" stroke-width="0.5" fill="url(#linear-gradient)"/>
        <path id="Path_1242" data-name="Path 1242" d="M507.616,310.875l7.665,11.786,5.393,2.7.771-17.189-28.764-10.827-7.724,3.348L496,309.837Z" transform="translate(-89.076 -38.744)" stroke="#000" stroke-miterlimit="10" stroke-width="0.5" fill="url(#linear-gradient)"/>
        <path id="Path_1243" data-name="Path 1243" d="M483.7,301.086l-11.774,4.836,7.8,8.516,15.014-4.209Z" transform="translate(-87.817 -39.136)" stroke="#000" stroke-miterlimit="10" stroke-width="0.5" fill="url(#linear-gradient)"/>
        <path id="Path_1244" data-name="Path 1244" d="M470.959,306.487l-4.03,1.625-4.978,13.646,8.515,2.31,8.3-9.064Z" transform="translate(-86.853 -39.702)" stroke="#000" stroke-miterlimit="10" stroke-width="0.5" fill="url(#linear-gradient)"/>
        <path id="Path_1245" data-name="Path 1245" d="M463.894,336.856l10.332-4.562-.494-10.259-3.339,3.661-8.515-2.31-.672,2.6Z" transform="translate(-86.782 -41.33)" stroke="#000" stroke-miterlimit="10" stroke-width="0.5" fill="url(#linear-gradient)"/>
        <path id="Path_1246" data-name="Path 1246" d="M480.03,316l8.278.274,2.786,5.5.3,7.733-6.282-2.878-4.07,4.894-5.532-1.39-.435-8.732Z" transform="translate(-88.121 -40.698)" stroke="#000" stroke-miterlimit="10" stroke-width="0.5" fill="url(#linear-gradient)"/>
        <path id="Path_1247" data-name="Path 1247" d="M480.561,315.508l15.014-4.209,4.781,3.818,2.687,15.917-11.122-2.017-.3-7.733-2.786-5.5Z" transform="translate(-88.652 -40.206)" stroke="#000" stroke-miterlimit="10" stroke-width="0.5" fill="url(#linear-gradient)"/>
        <path id="Path_1248" data-name="Path 1248" d="M475.553,331.379l.059,1.527,6.322,5.58h4.583l4.919-4.953v-2.78l-6.282-2.878-4.07,4.894Z" transform="translate(-88.168 -41.942)" stroke="#000" stroke-miterlimit="10" stroke-width="0.5" fill="url(#linear-gradient)"/>
        <path id="Path_1249" data-name="Path 1249" d="M464.181,337.8l10.332-4.562,6.322,5.58h4.583l4.919-4.953v-2.78l11.122,2.017-5.334,11.159-14.856,5.227-16.713-9.906Z" transform="translate(-87.069 -42.279)" stroke="#000" stroke-miterlimit="10" stroke-width="0.5" fill="url(#linear-gradient)"/>
        <path id="Path_1250" data-name="Path 1250" d="M464.026,308.3l-12.189,4.738-19.933,20.5,18.412-8.751,11.28-9.828Z" transform="translate(-83.95 -39.892)" stroke="#000" stroke-miterlimit="10" stroke-width="0.5" fill="url(#linear-gradient)"/>
        <path id="Path_1251" data-name="Path 1251" d="M461.055,315.738l-3.22,9.593,3.062,12.647,16.713,9.906-3.872,1.723H442.03l-15.725-9.985,5.057-5.306,18.412-8.751Z" transform="translate(-83.409 -40.671)" stroke="#000" stroke-miterlimit="10" stroke-width="0.5" fill="url(#linear-gradient)"/>
        <path id="Path_1252" data-name="Path 1252" d="M497.181,311.3l11.616,1.038,7.665,11.786,5.393,2.7-.1,2.193-9.127,8.967-13.315,4.209,5.334-11.159-2.687-15.917Z" transform="translate(-90.258 -40.206)" stroke="#000" stroke-miterlimit="10" stroke-width="0.5" fill="url(#linear-gradient)"/>
        <path id="Path_1253" data-name="Path 1253" d="M443.712,351.215l18.195,8.321,41.368-4.816L516.1,342.327l.494-11.238-9.127,8.967L475.42,351.215Z" transform="translate(-85.091 -42.279)" stroke="#000" stroke-miterlimit="10" stroke-width="0.5" fill="url(#linear-gradient)"/>
        <path id="Path_1254" data-name="Path 1254" d="M519.625,343.642l-.968,21.79,29.554,40.839L502.24,434.4l-1.719-10.827-13.058-8.5,5.907-14.253L480.233,385.91l8.87-27.82,17.7-2.056Z" transform="translate(-88.62 -43.594)" stroke="#000" stroke-miterlimit="10" stroke-width="0.5" fill="url(#linear-gradient)"/>
        <path id="Path_1255" data-name="Path 1255" d="M387.721,351.252h.929l10.865,62.1v5.443h-6.124l-5.67-3-14.165,4.562L358.6,415.956l-4.978,2.78-6.519.2L360.517,326l-25.623-15.271.474-.783,26.156,16.093-12.505,85.32-1.027,6.735,5.512-.333,5.038-2.8,15.014,4.366,14.224-4.5,5.946,3.035,4.761.1.059-4.934Z" transform="translate(-74.577 -40.064)" fill="url(#linear-gradient)"/>
        <path id="Path_1256" data-name="Path 1256" d="M336.4,382.262" transform="translate(-74.722 -47.639)" stroke="#000" stroke-miterlimit="10" stroke-width="0.5" fill="url(#linear-gradient)"/>
        <path id="Path_1257" data-name="Path 1257" d="M431.269,558.77l14.579-50.511,19.143-5.619L495.791,449l53.518-26.41,1.5,2.075L434.41,558.77Z" transform="translate(-83.889 -51.863)" stroke="#000" stroke-miterlimit="10" stroke-width="0.5" fill="url(#linear-gradient)"/>
        <path id="Path_1258" data-name="Path 1258" d="M421.418,571.56l-47.255-26.88-44.845,27.526Z" transform="translate(-74.038 -64.653)" stroke="#000" stroke-miterlimit="10" stroke-width="0.5" fill="url(#linear-gradient)"/>
        <path id="Path_1259" data-name="Path 1259" d="M320.137,563.6l-34.493-70.343L234.3,462.519Z" transform="translate(-64.857 -56.046)" stroke="#000" stroke-miterlimit="10" stroke-width="0.5" fill="url(#linear-gradient)"/>
        <path id="Path_1260" data-name="Path 1260" d="M520.114,413.146l5.828,8.047L472.425,447.6l-30.8,53.643-19.143,5.619L407.9,557.375l-47.255-26.88L315.8,558.021,281.31,487.678l-51.344-30.737-40.518-47.672,118.414,70.773,36.014,29.66,11.5-5.482,6.993-.2,11.3,5.678L409.7,480.141l64.442-38.862Z" transform="translate(-60.523 -50.468)" stroke="#000" stroke-miterlimit="10" stroke-width="0.5" fill="url(#linear-gradient)"/>
        <path id="Path_1261" data-name="Path 1261" d="M267.084,268.633l37.358,8.927,23.292,17.62.474,10.435-.474.783-26.65-22.514-40.3-8.751Z" transform="translate(-67.416 -35.736)" stroke="#000" stroke-miterlimit="10" stroke-width="0.5" fill="url(#linear-gradient)"/>
        <path id="Path_1262" data-name="Path 1262" d="M257.305,290.786v.744l18.531.92,38.424,19.206L321.1,328.3l.83-.392-6.263-15.584,9.641,4.757.454-.842-49.7-24.766Z" transform="translate(-67.08 -38.057)" stroke="#000" stroke-miterlimit="10" stroke-width="0.5" fill="url(#linear-gradient)"/>
        <path id="Path_1263" data-name="Path 1263" d="M260.393,275.893l-3.635,3.739,15.508,10.141,3.734.137,49.7,24.766-.454.842-9.641-4.757,1.719,4.268,22.047,12.236-4.8,19.773,2.39,11.747L318,379.244l1.442,13.509,20.842,17.6,12.683-87.924-25.623-15.271-26.65-22.514Z" transform="translate(-67.027 -36.497)" stroke="#000" stroke-miterlimit="10" stroke-width="0.5" fill="url(#linear-gradient)"/>
        <path id="Path_1264" data-name="Path 1264" d="M213.984,324.038,230.3,345.945l63.988,12.138L317.4,340.072,300.73,350.507l-31.609-.783L238.085,338.9l-19.854-19.245Z" transform="translate(-62.894 -41.081)" stroke="#000" stroke-miterlimit="10" stroke-width="0.5" fill="url(#linear-gradient)"/>
        <path id="Path_1265" data-name="Path 1265" d="M241.905,294.154l18,2.819-30.3,9.848,7.626-7.851,9.562-.039Z" transform="translate(-64.402 -38.41)" stroke="#000" stroke-miterlimit="10" stroke-width="0.5" fill="url(#linear-gradient)"/>
        <path id="Path_1266" data-name="Path 1266" d="M238.039,298.97l4.682-4.816,4.88,4.777Z" transform="translate(-65.218 -38.41)" stroke="#000" stroke-miterlimit="10" stroke-width="0.5" fill="url(#linear-gradient)"/>
        <path id="Path_1267" data-name="Path 1267" d="M375.6,310.817l10.115,73.495,6.875,21.144-4.722,4.7-19.3.724-4.583-3.994,5.235-21.4Z" transform="translate(-77.387 -40.155)" stroke="#000" stroke-miterlimit="10" stroke-width="0.5" fill="url(#linear-gradient)"/>
        <path id="Path_1268" data-name="Path 1268" d="M218.685,317.311l16.832-7.909,17.108,1.273L265.6,300.435l-6.756-3.132-30.3,9.848Z" transform="translate(-63.348 -38.739)" stroke="#000" stroke-miterlimit="10" stroke-width="0.5" fill="url(#linear-gradient)"/>
        <path id="Path_1269" data-name="Path 1269" d="M287.549,308.477l3.536,10.807L318.151,332.4,299.8,313.509Z" transform="translate(-70.002 -39.91)" stroke="#000" stroke-miterlimit="10" stroke-width="0.5" fill="url(#linear-gradient)"/>
        <path id="Path_1270" data-name="Path 1270" d="M268.821,300.8l2.134,1.018V315l-11.024,5.482-7.961-3.524.909-3.583,2.963-2.33Z" transform="translate(-66.564 -39.106)" stroke="#000" stroke-miterlimit="10" stroke-width="0.5" fill="url(#linear-gradient)"/>
        <path id="Path_1271" data-name="Path 1271" d="M272.985,301.939l13.157,5.854,3.536,10.807-9.878-.294-.415-1.566-6.4-1.625Z" transform="translate(-68.595 -39.225)" stroke="#000" stroke-miterlimit="10" stroke-width="0.5" fill="url(#linear-gradient)"/>
        <path id="Path_1272" data-name="Path 1272" d="M280.529,320.221l1.738,6.069-1.146,3.818,9.522,1.9,1.817-4.738-2.055-6.754Z" transform="translate(-69.324 -41.14)" stroke="#000" stroke-miterlimit="10" stroke-width="0.5" fill="url(#linear-gradient)"/>
        <path id="Path_1273" data-name="Path 1273" d="M260.657,322.138l11.024-5.482,6.4,1.625,2.153,7.635-1.146,3.818-8.2-2.8-11.122,1.919-.277-.548Z" transform="translate(-67.291 -40.767)" stroke="#000" stroke-miterlimit="10" stroke-width="0.5" fill="url(#linear-gradient)"/>
        <path id="Path_1274" data-name="Path 1274" d="M251.631,318.843l7.961,3.524-1.166,6.167.277.548-10.233,1.312Z" transform="translate(-66.226 -40.996)" stroke="#000" stroke-miterlimit="10" stroke-width="0.5" fill="url(#linear-gradient)"/>
        <path id="Path_1275" data-name="Path 1275" d="M259.8,330.056l3.339,6.617,7.981,2.545,6.875-4.307,1.126-3.974-8.2-2.8Z" transform="translate(-67.32 -41.97)" stroke="#000" stroke-miterlimit="10" stroke-width="0.5" fill="url(#linear-gradient)"/>
        <path id="Path_1276" data-name="Path 1276" d="M248.47,331.592l4.682,12.51,15.212,5.306,16.693-9.417,2.489-6.931-9.522-1.9-1.126,3.974-6.875,4.307-7.981-2.545L258.7,330.28Z" transform="translate(-66.226 -42.194)" stroke="#000" stroke-miterlimit="10" stroke-width="0.5" fill="url(#linear-gradient)"/>
        <path id="Path_1277" data-name="Path 1277" d="M218.685,318.727l16.832-7.909,17.108,1.273-2.963,2.33-4.07,15.134,4.682,12.51-11.735-4.092Z" transform="translate(-63.348 -40.155)" stroke="#000" stroke-miterlimit="10" stroke-width="0.5" fill="url(#linear-gradient)"/>
        <path id="Path_1278" data-name="Path 1278" d="M289.437,320.549l2.055,6.754-4.307,11.668-16.693,9.417,4.089,1.429,31.609.783,16.674-10.435-6.361-6.5Z" transform="translate(-68.354 -41.175)" stroke="#000" stroke-miterlimit="10" stroke-width="0.5" fill="url(#linear-gradient)"/>
        <path id="Path_1279" data-name="Path 1279" d="M319.674,486.3l33.426-13,18.787,10.9L390.6,473.3l32.6,13-51.759,11.61Z" transform="translate(-73.106 -57.176)" stroke="#000" stroke-miterlimit="10" stroke-width="0.5" fill="url(#linear-gradient)"/>
        <path id="Path_1280" data-name="Path 1280" d="M319.674,487.821l36.785,30.111,11.5-5.482,6.993-.2,11.3,5.677,36.943-30.111-51.759,11.61Z" transform="translate(-73.106 -58.697)" stroke="#000" stroke-miterlimit="10" stroke-width="0.5" fill="url(#linear-gradient)"/>
        <path id="Path_1281" data-name="Path 1281" d="M189.447,400.395l24.813-13.469-4.6-21.144L234,347.613l-6.065-1.155-16.318-21.907-1.956,2.017Z" transform="translate(-60.523 -41.594)" stroke="#000" stroke-miterlimit="10" stroke-width="0.5" fill="url(#linear-gradient)"/>
        <path id="Path_1282" data-name="Path 1282" d="M203.62,326.8l-17.464,63.8L153.9,435.871l-7.764,47.339-14.263,30.972-4.9-46.791,12.742-31.129L135.325,397.2Z" transform="translate(-54.486 -41.83)" stroke="#000" stroke-miterlimit="10" stroke-width="0.5" fill="url(#linear-gradient)"/>
        <path id="Path_1283" data-name="Path 1283" d="M188.976,409.269l65.884,77.547L228.605,577.99l4.524,69.149-33.248,58.146,13.809-93.973-4.228-53.291,20.032-62.414-44.924-72.34Z" transform="translate(-60.052 -50.468)" stroke="#000" stroke-miterlimit="10" stroke-width="0.5" fill="url(#linear-gradient)"/>
        <path id="Path_1284" data-name="Path 1284" d="M172.442,460.989l28.547,72.731L175.9,567.981l-21.573-44.246Z" transform="translate(-57.129 -55.886)" stroke="#000" stroke-miterlimit="10" stroke-width="0.5" fill="url(#linear-gradient)"/>
        <path id="Path_1285" data-name="Path 1285" d="M184.282,398.073l-7.151,24.022-9.206,32.3-18.116,62.747,21.573,44.246,10.154,22.417-21.652,52.077L107.571,516.968l17.523-42.112,4.9,46.791,14.263-30.972,7.764-47.339Z" transform="translate(-52.612 -49.296)" stroke="#000" stroke-miterlimit="10" stroke-width="0.5" fill="url(#linear-gradient)"/>
        <path id="Path_1286" data-name="Path 1286" d="M180.67,424.905l44.924,72.34-20.032,62.414,3.279,41.25-60.847,94.169L144.2,595.016l9.779,22.221-.632,52.194,48.1-67.935-15.528-25.059,24.141-54.818-30.107-42.758-8.495-21.653,8.89-31.246" transform="translate(-56.151 -52.106)" stroke="#000" stroke-miterlimit="10" stroke-width="0.5" fill="url(#linear-gradient)"/>
        <path id="Path_1287" data-name="Path 1287" d="M154.958,623.551l9.443,21.457,21.652-52.077L175.9,570.514l25.089-34.261-20.052-51.078,30.107,42.758L186.9,582.751l15.528,25.06-48.1,67.935Z" transform="translate(-57.129 -58.42)" stroke="#000" stroke-miterlimit="10" stroke-width="0.5" fill="url(#linear-gradient)"/>
        <path id="Path_1288" data-name="Path 1288" d="M258.306,500.855l8.179,65.037-20.111,39.155-11.557,5.4-1.5-22.867Z" transform="translate(-64.762 -60.062)" stroke="#000" stroke-miterlimit="10" stroke-width="0.5" fill="url(#linear-gradient)"/>
        <path id="Path_1289" data-name="Path 1289" d="M205.039,636.461,215.45,630.8l-.731-9.3Z" transform="translate(-62.029 -72.7)" stroke="#000" stroke-miterlimit="10" stroke-width="0.5" fill="url(#linear-gradient)"/>
        <path id="Path_1290" data-name="Path 1290" d="M556,432.4l-3.754,32.636,2.924,37.2,16.812-23.689L578.7,494.8l-15.33,38.568,7.27,17.62,18.392-43.658,8.831-33.576L562.5,424.905Z" transform="translate(-95.578 -52.106)" stroke="#000" stroke-miterlimit="10" stroke-width="0.5" fill="url(#linear-gradient)"/>
        <path id="Path_1291" data-name="Path 1291" d="M491.714,600.851l78.745-37,12.722-51.685-18.392,43.658-7.27-17.62,15.33-38.568-6.717-16.25-16.812,23.689-2.924-36-8.949,83.382Z" transform="translate(-89.729 -56.942)" stroke="#000" stroke-miterlimit="10" stroke-width="0.5" fill="url(#linear-gradient)"/>
        <path id="Path_1292" data-name="Path 1292" d="M598.2,479.467l10.925,15.094-28.744,86.906,40.123-81.737L629.237,564l-18.392,60.632L594.112,607.6l-6.578,31.266-31.767-64.332,20.882-9.808,12.723-51.685Z" transform="translate(-95.918 -57.822)" stroke="#000" stroke-miterlimit="10" stroke-width="0.5" fill="url(#linear-gradient)"/>
        <path id="Path_1293" data-name="Path 1293" d="M629.237,573.9,641.11,661.6,673.687,710,578.17,648.761l-22.4-64.332,31.767,64.332,6.578-31.266,16.733,17.033Z" transform="translate(-95.918 -67.713)" stroke="#000" stroke-miterlimit="10" stroke-width="0.5" fill="url(#linear-gradient)"/>
        <path id="Path_1294" data-name="Path 1294" d="M549.457,433.281l-12.7,117.212-36.923,37.452-15.291-28.838,7.211-59.36Z" transform="translate(-89.036 -52.984)" stroke="#000" stroke-miterlimit="10" stroke-width="0.5" fill="url(#linear-gradient)"/>
        <path id="Path_1295" data-name="Path 1295" d="M550.816,585.661l21.1,60.593-65.371-31.481-2.015-7.361Z" transform="translate(-90.967 -68.946)" stroke="#000" stroke-miterlimit="10" stroke-width="0.5" fill="url(#linear-gradient)"/>
        <path id="Path_1296" data-name="Path 1296" d="M260.967,495.891l-1.264,4.444,8.179,65.037L247.77,604.528l17.049,41.5L395.541,677.65,316.2,639.67l-8.554-44.383L399.947,606l61.716-40.33,7.211-59.36L416.68,566.449h-3.141l-92.1.646Z" transform="translate(-66.158 -59.542)" stroke="#000" stroke-miterlimit="10" stroke-width="0.5" fill="url(#linear-gradient)"/>
        <path id="Path_1297" data-name="Path 1297" d="M228.345,617.239l17.049,41.5,40.8,9.867L251.7,708.628l47.65,15.271-95.3,25.2H46.733l23-56.325,66.754-32.949,2.094,55.4,51.167-79.211,10.411-5.658.217,2.741L186.562,727.07l33.248-58.146-3.023-46.282Z" transform="translate(-46.733 -72.254)" stroke="#000" stroke-miterlimit="10" stroke-width="0.5" fill="url(#linear-gradient)"/>
        <path id="Path_1298" data-name="Path 1298" d="M530.049,629.486,557.9,710.733l17.582-19.127,25.386,23.434,4.03,13.313h18.965l34.019,22.025H689.12l-20.7-55.013L653.4,689.393l17.8,26.43-95.518-61.239-1.3-3.739Z" transform="translate(-93.433 -73.537)" stroke="#000" stroke-miterlimit="10" stroke-width="0.5" fill="url(#linear-gradient)"/>
        <path id="Path_1299" data-name="Path 1299" d="M305.05,603.451l92.3,10.709,61.716-40.33,15.291,28.838-8.811,8.947,11.577-5.443,2.015,7.361,21.04,10.122L528.03,704.9l17.582-19.127L571,709.21l4.03,13.313h18.965l34.019,22.025H220.872l95.3-25.2-47.65-15.271,34.493-40.017,89.927,21.751L313.6,647.834Z" transform="translate(-63.559 -67.707)" stroke="#000" stroke-miterlimit="10" stroke-width="0.5" fill="url(#linear-gradient)"/>
      </g>
    </g>
  </g>
</svg>
