<svg xmlns="http://www.w3.org/2000/svg" xmlns:xlink="http://www.w3.org/1999/xlink" width="651" height="655" viewBox="0 0 651 655">
  <defs>
    <linearGradient id="linear-gradient" x1="-0.025" y1="0.534" x2="1.017" y2="0.537" gradientUnits="objectBoundingBox">
      <stop offset="0" stop-color="#21d4fd"/>
      <stop offset="1" stop-color="#b721ff"/>
      <stop offset="1" stop-color="#1d1d1d"/>
    </linearGradient>
    <clipPath id="clip-path">
      <rect id="Rectangle_34" data-name="Rectangle 34" width="29.288" height="29.288" fill="#fff"/>
    </clipPath>
  </defs>
  <g id="Group_55" data-name="Group 55" transform="translate(-151 -2992)">
    <g id="Rectangle_153" data-name="Rectangle 153" transform="translate(151 2992)" stroke="#fff" stroke-width="5">
      <rect width="651" height="655" rx="73" stroke="none"/>
      <rect x="2.5" y="2.5" width="646" height="650" rx="70.5" fill="none"/>
    </g>
    <g id="Group_49" data-name="Group 49" transform="translate(153.509 2980.162)">
      <g id="Rectangle_45" data-name="Rectangle 45" transform="translate(178.416 199.681)" fill="none" stroke="#fff" stroke-width="2">
        <rect width="349.201" height="343.569" stroke="none"/>
        <rect x="1" y="1" width="347.201" height="341.569" fill="none"/>
      </g>
      <text id="B_r_a_n_d_i_n_g" data-name="B
r
a
n
d
i
n
g" transform="translate(565.982 190.679)" fill="none" stroke="#fff" stroke-width="2" font-size="36" font-family="Montserrat-Bold, Montserrat" font-weight="700"><tspan x="0" y="0">B</tspan><tspan x="0" y="44">R</tspan><tspan x="0" y="88">A</tspan><tspan x="0" y="132">N</tspan><tspan x="0" y="176">D</tspan><tspan x="0" y="220">I</tspan><tspan x="0" y="264">N</tspan><tspan x="0" y="308">G</tspan></text>
      <g id="Group_1" data-name="Group 1" transform="translate(90.343 123.122)">
        <circle id="Ellipse_5" data-name="Ellipse 5" cx="83.368" cy="83.368" r="83.368" transform="translate(236.576 21.974)" fill="#fff"/>
        <circle id="Ellipse_3" data-name="Ellipse 3" cx="108.85" cy="108.85" r="108.85" transform="translate(0 3.728)" fill="#fff"/>
        <rect id="Rectangle_5" data-name="Rectangle 5" width="376.256" height="364.302" transform="translate(43.414 34.558)" fill="url(#linear-gradient)"/>
        <circle id="Ellipse_1" data-name="Ellipse 1" cx="108.85" cy="108.85" r="108.85" transform="translate(0 3.728)" fill="#fff" opacity="0.66"/>
        <ellipse id="Ellipse_2" data-name="Ellipse 2" cx="111.367" cy="111.681" rx="111.367" ry="111.681" transform="translate(78.02 62.872)" fill="#fff" opacity="0.66"/>
        <circle id="Ellipse_4" data-name="Ellipse 4" cx="83.368" cy="83.368" r="83.368" transform="translate(236.576 21.974)" fill="#fff" opacity="0.66"/>
        <line id="Line_1" data-name="Line 1" x1="142.214" y1="141.725" transform="translate(280.762 258.217)" fill="none" stroke="#1d1d1d" stroke-width="2"/>
        <line id="Line_2" data-name="Line 2" x1="143.436" y1="143.68" transform="translate(277.097 248.443)" fill="none" stroke="#1d1d1d" stroke-width="2"/>
        <line id="Line_3" data-name="Line 3" x1="144.413" y1="144.657" transform="translate(276.608 242.09)" fill="none" stroke="#1d1d1d" stroke-width="2"/>
        <line id="Line_4" data-name="Line 4" x1="143.68" y1="143.68" transform="translate(277.097 259.927)" fill="none" stroke="#1d1d1d" stroke-width="2"/>
        <line id="Line_5" data-name="Line 5" x1="143.68" y1="143.68" transform="translate(280.029 268.235)" fill="none" stroke="#1d1d1d" stroke-width="2"/>
        <rect id="Rectangle_28" data-name="Rectangle 28" width="71.728" height="12.584" transform="translate(351.718 317.694)" fill="#1d1d1d"/>
        <rect id="Rectangle_30" data-name="Rectangle 30" width="71.728" height="12.584" transform="translate(307.675 299.448)" fill="#1d1d1d"/>
        <rect id="Rectangle_29" data-name="Rectangle 29" width="71.728" height="12.584" transform="translate(328.438 335.941)" fill="#1d1d1d"/>
        <rect id="Rectangle_16" data-name="Rectangle 16" width="180.578" height="42.785" transform="translate(55.998 327.132)" fill="#1d1d1d"/>
        <rect id="Rectangle_33" data-name="Rectangle 33" width="180.578" height="16.359" transform="translate(55.998 372.434)" fill="#1d1d1d"/>
        <rect id="Rectangle_21" data-name="Rectangle 21" width="180.578" height="20.763" transform="translate(55.998 303.852)" fill="#1d1d1d"/>
        <rect id="Rectangle_22" data-name="Rectangle 22" width="180.578" height="30.83" transform="translate(55.998 270.505)" fill="#1d1d1d"/>
        <rect id="Rectangle_23" data-name="Rectangle 23" width="180.578" height="70.469" transform="translate(55.998 198.148)" fill="#1d1d1d"/>
        <rect id="Rectangle_24" data-name="Rectangle 24" width="180.578" height="51.594" transform="translate(55.998 144.037)" fill="#1d1d1d"/>
        <rect id="Rectangle_25" data-name="Rectangle 25" width="180.578" height="23.28" transform="translate(55.998 118.241)" fill="#1d1d1d"/>
        <rect id="Rectangle_26" data-name="Rectangle 26" width="180.578" height="45.931" transform="translate(55.998 69.793)" fill="#1d1d1d"/>
        <rect id="Rectangle_27" data-name="Rectangle 27" width="180.578" height="8.809" transform="translate(55.998 58.467)" fill="#1d1d1d"/>
        <rect id="Rectangle_31" data-name="Rectangle 31" width="180.578" height="18.247" transform="translate(55.998 37.704)" fill="#1d1d1d"/>
        <rect id="Rectangle_32" data-name="Rectangle 32" width="180.578" height="32.041" transform="translate(55.998)" fill="#1d1d1d"/>
      </g>
      <text id="Rachel" transform="translate(57.539 610.677)" fill="#fff" font-size="32" font-family="Montserrat-Bold, Montserrat" font-weight="700"><tspan x="0" y="0">RACHEL</tspan></text>
      <text id="Baerts" transform="translate(218.889 610.677)" fill="none" stroke="#fff" stroke-width="2" font-size="32" font-family="Montserrat-Bold, Montserrat" font-weight="700"><tspan x="0" y="0">BAERTS</tspan></text>
      <text id="Branding_guide_2021" data-name="Branding guide 2021" transform="translate(109.702 77.138)" fill="#fff" font-size="7" font-family="Montserrat-Light, Montserrat" font-weight="300"><tspan x="0" y="0">Branding guide 2021</tspan></text>
      <g id="Mask_Group_1" data-name="Mask Group 1" transform="translate(50 60)" clip-path="url(#clip-path)">
        <g id="Layer_2" data-name="Layer 2" transform="translate(0.316 0)">
          <g id="Layer_1" data-name="Layer 1">
            <path id="Path_1" data-name="Path 1" d="M13.319,0,0,7.389l13.319,7.388ZM12.14,13.079,1.882,7.388,12.275,1.622Z" fill="#fff"/>
            <path id="Path_2" data-name="Path 2" d="M39.53.138V14.914L52.849,7.526Zm1.15,1.66L51.075,7.563,40.815,13.254Z" transform="translate(-23.982 -0.083)" fill="#fff"/>
            <path id="Path_3" data-name="Path 3" d="M13.227,14.215l5.5,3.051v-6.1ZM18.2,16.58,13.96,14.23l4.292-2.381Z" transform="translate(-8.024 -6.772)" fill="#fff"/>
            <path id="Path_4" data-name="Path 4" d="M39.53,37.431V52.208L52.849,44.82Zm1.15,1.66,10.394,5.767-10.259,5.69Z" transform="translate(-23.982 -22.708)" fill="#fff"/>
            <path id="Path_5" data-name="Path 5" d="M0,44.682l.921.511,11.247-6.239h0V51.432l1.151.638V37.293Z" transform="translate(0 -22.625)" fill="#fff"/>
            <rect id="Rectangle_35" data-name="Rectangle 35" width="0.769" height="29.445" transform="translate(14.78 0.054)" fill="#fff"/>
            <rect id="Rectangle_36" data-name="Rectangle 36" width="0.769" height="29.445" transform="translate(13.319)" fill="#fff"/>
          </g>
        </g>
      </g>
      <rect id="Rectangle_37" data-name="Rectangle 37" width="4.506" height="24.782" transform="translate(509.594 498.191)" fill="#0c0c0c"/>
      <rect id="Rectangle_38" data-name="Rectangle 38" width="29.288" height="13.517" transform="translate(487.065 521.847)" fill="#0c0c0c"/>
    </g>
  </g>
</svg>
