<svg xmlns="http://www.w3.org/2000/svg" xmlns:xlink="http://www.w3.org/1999/xlink" width="1879.033" height="1218.435" viewBox="0 0 1879.033 1218.435">
  <defs>
    <clipPath id="clip-path">
      <path id="Path_1316" data-name="Path 1316" d="M337.912,1004.07l.5-179.215,669.774,351.892-.5,179.44Z" transform="translate(-337.912 -824.856)"/>
    </clipPath>
    <clipPath id="clip-path-2">
      <path id="Path_1321" data-name="Path 1321" d="M342.98,1224.042l.743-179.44L1013.5,1396.72l-.743,179.215Z" transform="translate(-342.98 -1044.602)"/>
    </clipPath>
    <clipPath id="clip-path-3">
      <path id="Path_1326" data-name="Path 1326" d="M341.828,1438.952l.5-179.44L1012.1,1611.629l-.5,179.215Z" transform="translate(-341.828 -1259.511)"/>
    </clipPath>
    <clipPath id="clip-path-4">
      <path id="Path_1334" data-name="Path 1334" d="M985,1349.355l-.743-183.047L2143.229,557.428l.5,183.047Z" transform="translate(-984.253 -557.428)"/>
    </clipPath>
    <clipPath id="clip-path-5">
      <path id="Path_1342" data-name="Path 1342" d="M1000.872,1569.1l-.5-183.047L2159.1,777.175l.5,183.047Z" transform="translate(-1000.377 -777.175)"/>
    </clipPath>
    <clipPath id="clip-path-6">
      <path id="Path_1350" data-name="Path 1350" d="M1007.8,1769.729l-.743-183.047L2166.032,977.8l.5,183.047Z" transform="translate(-1007.056 -977.803)"/>
    </clipPath>
  </defs>
  <g id="text_effect_3d_Recovered_" data-name="text effect 3d [Recovered]" transform="translate(-337.912 -557.428)">
    <g id="Group_12" data-name="Group 12" transform="translate(337.912 819.149)">
      <g id="Group_11" data-name="Group 11">
        <g id="Group_10" data-name="Group 10">
          <g id="Group_9" data-name="Group 9" clip-path="url(#clip-path)">
            <g id="Group_8" data-name="Group 8" transform="translate(0.495 4.058)">
              <g id="Group_7" data-name="Group 7">
                <g id="Group_6" data-name="Group 6">
                  <path id="Path_1312" data-name="Path 1312" d="M498.138,912.861l-54.246-28.629-.248,92.651c0,12.624-2.229,20.514-6.44,24.121-4.211,3.381-10.651,3.156-18.577-1.127a43.273,43.273,0,0,1-18.577-18.26c-4.211-7.89-6.44-18.26-6.44-30.884l.248-92.651L338.62,829l-.248,94.229a128.256,128.256,0,0,0,20.807,70.784c14.119,21.641,33.687,39,58.7,52.3s44.833,16.456,58.952,9.693,21.3-22.993,21.3-48.692V912.861" transform="translate(-338.373 -829.002)" fill="#fff"/>
                  <path id="Path_1313" data-name="Path 1313" d="M579.8,960.669c-16.348-8.566-30.219-13.3-41.861-14.427-11.394-.9-20.064,1.353-26.008,7.214s-8.669,13.977-8.669,24.8a67.048,67.048,0,0,0,9.165,34.49,115.287,115.287,0,0,0,22.045,27.277,350.79,350.79,0,0,0,31.705,25.473c9.908,7.214,16.843,12.849,21.054,16.907s6.44,7.89,6.44,11.5c0,3.156-1.734,4.509-4.954,4.283s-8.669-2.254-16.348-6.312a171.821,171.821,0,0,1-27.742-18.936,239.127,239.127,0,0,1-26.256-25.248l-17.834,32.687c8.174,9.693,18.825,19.612,31.705,29.531a278.6,278.6,0,0,0,39.632,25.7c16.348,8.566,30.219,13.3,41.861,14.2,11.394.9,20.063-1.578,26.008-7.214,5.7-5.636,8.669-13.976,8.669-24.8A64.962,64.962,0,0,0,639,1083.3a110.332,110.332,0,0,0-22.293-27.277A388.359,388.359,0,0,0,585,1031a251.317,251.317,0,0,1-20.807-16.456c-4.211-3.832-6.192-7.665-6.192-11.046,0-7.214,7.183-6.988,21.3.451,14.366,7.664,29.476,19.838,45.576,36.745l16.843-33.138a189,189,0,0,0-28.733-26.15A347.687,347.687,0,0,0,579.8,960.669" transform="translate(-326.155 -831.499)" fill="#fff"/>
                  <path id="Path_1314" data-name="Path 1314" d="M786.777,1080.85l-133.261-70.108-.5,171.55,136.234,71.686.248-43.733-81.988-43.056v-22.543l69.355,36.519v-41.7l-69.108-36.294v-20.288l78.768,41.479.248-43.507" transform="translate(-314.666 -832.88)" fill="#fff"/>
                  <path id="Path_1315" data-name="Path 1315" d="M855,1250.827l.248-81.379,23.284,12.173a76.687,76.687,0,0,1,28.485,25.7,63.125,63.125,0,0,1,10.651,35.618c0,12.849-3.716,20.965-10.651,24.346-7.183,3.381-16.6,2.029-28.485-4.283L855,1250.827m25.76-112.939-80.749-42.38-.5,171.325,80.749,42.38c18.33,9.693,34.43,14.653,48.3,15.1,14.119.451,24.77-3.832,32.7-12.624,7.679-8.792,11.642-22.092,11.642-39.45a124.041,124.041,0,0,0-11.394-51.623,164.635,164.635,0,0,0-32.448-46.889,193.255,193.255,0,0,0-48.3-35.843" transform="translate(-303.628 -834.688)" fill="#fff"/>
                </g>
              </g>
            </g>
          </g>
        </g>
      </g>
    </g>
    <g id="Group_19" data-name="Group 19" transform="translate(343.361 1034.207)">
      <g id="Group_18" data-name="Group 18">
        <g id="Group_17" data-name="Group 17">
          <g id="Group_16" data-name="Group 16" clip-path="url(#clip-path-2)">
            <g id="Group_15" data-name="Group 15" transform="translate(0.495 4.058)">
              <g id="Group_14" data-name="Group 14">
                <g id="Group_13" data-name="Group 13">
                  <path id="Path_1317" data-name="Path 1317" d="M503.205,1132.607l-54.246-28.629-.248,92.651c0,12.624-2.229,20.514-6.44,24.121-4.211,3.382-10.651,3.156-18.577-1.127a43.272,43.272,0,0,1-18.577-18.26c-4.211-7.89-6.44-18.26-6.44-30.884l.248-92.651-55.237-29.08-.248,94.229a128.257,128.257,0,0,0,20.807,70.784c14.119,21.641,33.687,39,58.7,52.3s44.833,16.456,58.952,9.693,21.3-22.994,21.3-48.692v-94.454" transform="translate(-343.44 -1048.748)" fill="#fff"/>
                  <path id="Path_1318" data-name="Path 1318" d="M585.112,1180.646c-16.348-8.566-30.219-13.3-41.861-14.427-11.394-.9-20.064,1.353-26.008,7.214-5.7,5.861-8.669,13.977-8.669,24.8a67.048,67.048,0,0,0,9.165,34.49A115.282,115.282,0,0,0,539.784,1260a395.005,395.005,0,0,0,31.705,25.473c9.908,7.214,16.844,12.849,21.054,16.907s6.44,7.89,6.44,11.5c0,3.156-1.734,4.509-4.954,4.283s-8.669-2.254-16.348-6.312a184.689,184.689,0,0,1-27.99-18.936,202.71,202.71,0,0,1-26.256-25.248L505.6,1300.348c8.174,9.693,18.825,19.612,31.705,29.531a278.579,278.579,0,0,0,39.632,25.7c16.348,8.566,30.219,13.3,41.861,14.2,11.394.9,20.063-1.578,26.008-7.214,5.7-5.636,8.669-13.977,8.669-24.8a63.643,63.643,0,0,0-9.412-34.265,116.159,116.159,0,0,0-22.293-27.277,388.439,388.439,0,0,0-31.705-25.022,251.258,251.258,0,0,1-20.807-16.456c-4.211-3.832-6.192-7.665-6.192-11.046,0-7.214,7.183-6.988,21.3.451,14.366,7.439,29.476,19.838,45.576,36.745l16.843-33.138a189.012,189.012,0,0,0-28.733-26.15,234.847,234.847,0,0,0-32.944-20.965" transform="translate(-331.222 -1051.251)" fill="#fff"/>
                  <path id="Path_1319" data-name="Path 1319" d="M792.092,1300.6l-133.261-69.882-.743,171.325,136.481,71.686v-43.507l-81.988-43.057.248-22.543,69.355,36.294v-41.7l-69.355-36.294v-20.063l79.016,41.479.248-43.733" transform="translate(-319.733 -1052.631)" fill="#fff"/>
                  <path id="Path_1320" data-name="Path 1320" d="M860.052,1470.8l.248-81.379,23.283,12.173a76.689,76.689,0,0,1,28.485,25.7,63.125,63.125,0,0,1,10.651,35.617c0,12.849-3.715,20.965-10.651,24.346-7.183,3.381-16.6,2.029-28.485-4.283L860.052,1470.8m26.008-113.165-80.749-42.38-.5,171.55,80.749,42.38c18.33,9.693,34.43,14.653,48.3,15.1,14.119.451,24.77-3.832,32.7-12.624,7.679-8.792,11.642-22.092,11.642-39.45a124.042,124.042,0,0,0-11.394-51.623,164.637,164.637,0,0,0-32.448-46.889,188.684,188.684,0,0,0-48.3-36.068" transform="translate(-308.678 -1054.435)" fill="#fff"/>
                </g>
              </g>
            </g>
          </g>
        </g>
      </g>
    </g>
    <g id="Group_26" data-name="Group 26" transform="translate(342.123 1244.531)">
      <g id="Group_25" data-name="Group 25">
        <g id="Group_24" data-name="Group 24">
          <g id="Group_23" data-name="Group 23" clip-path="url(#clip-path-3)">
            <g id="Group_22" data-name="Group 22" transform="translate(0.495 4.058)">
              <g id="Group_21" data-name="Group 21">
                <g id="Group_20" data-name="Group 20">
                  <path id="Path_1322" data-name="Path 1322" d="M502.053,1347.517l-54.246-28.629-.248,92.651c0,12.624-2.229,20.514-6.44,24.121-4.211,3.381-10.651,3.156-18.577-1.127a43.273,43.273,0,0,1-18.577-18.26c-4.211-7.89-6.44-18.26-6.44-30.884l.248-92.651-55.237-29.08-.248,94.229a128.256,128.256,0,0,0,20.807,70.784c14.119,21.641,33.687,39,58.7,52.3s44.833,16.456,58.952,9.693,21.3-22.994,21.3-48.692v-94.454" transform="translate(-342.289 -1263.658)" fill="#fff"/>
                  <path id="Path_1323" data-name="Path 1323" d="M583.73,1395.555c-16.348-8.566-30.219-13.3-41.861-14.427-11.394-.9-20.063,1.353-26.008,7.214-5.7,5.861-8.669,13.976-8.669,24.8a67.048,67.048,0,0,0,9.165,34.49,115.282,115.282,0,0,0,22.045,27.277,394.949,394.949,0,0,0,31.705,25.473c9.908,7.214,16.843,12.849,21.054,17.133,4.211,4.058,6.44,7.89,6.44,11.5,0,3.156-1.734,4.509-4.954,4.283s-8.669-2.254-16.348-6.312a184.651,184.651,0,0,1-27.99-18.936,202.7,202.7,0,0,1-26.256-25.248l-17.834,32.687c8.174,9.693,18.825,19.612,31.705,29.531a278.589,278.589,0,0,0,39.632,25.7c16.348,8.566,30.219,13.3,41.861,14.2,11.394.9,20.063-1.578,26.008-7.214,5.7-5.636,8.669-13.976,8.669-24.8a63.642,63.642,0,0,0-9.412-34.265,116.155,116.155,0,0,0-22.293-27.277,388.361,388.361,0,0,0-31.705-25.022,251.333,251.333,0,0,1-20.807-16.456c-4.211-3.832-6.192-7.665-6.192-11.046,0-7.214,7.183-6.988,21.3.451,14.366,7.439,29.476,19.838,45.576,36.745l17.091-33.137a188.99,188.99,0,0,0-28.733-26.15,219.687,219.687,0,0,0-33.191-21.19" transform="translate(-330.088 -1266.16)" fill="#fff"/>
                  <path id="Path_1324" data-name="Path 1324" d="M790.693,1515.511l-133.261-69.883-.5,171.325,136.234,71.686.248-43.508-81.988-43.282v-22.543l69.355,36.519.248-41.7-69.355-36.294v-20.063l79.016,41.479v-43.733" transform="translate(-318.582 -1267.54)" fill="#fff"/>
                  <path id="Path_1325" data-name="Path 1325" d="M858.9,1685.483l.248-81.379,23.284,12.173a76.69,76.69,0,0,1,28.485,25.7,63.125,63.125,0,0,1,10.651,35.618c0,12.849-3.715,20.965-10.651,24.346-7.183,3.381-16.6,2.029-28.485-4.283L858.9,1685.483m26.008-112.939-80.749-42.38-.5,171.325,80.749,42.38c18.33,9.693,34.43,14.653,48.3,15.1,14.119.451,24.77-3.832,32.7-12.624,7.679-8.792,11.642-22.092,11.642-39.45a123.283,123.283,0,0,0-11.394-51.623c-7.679-16.907-18.577-32.462-32.448-46.889a193.258,193.258,0,0,0-48.3-35.843" transform="translate(-307.526 -1269.344)" fill="#fff"/>
                </g>
              </g>
            </g>
          </g>
        </g>
      </g>
    </g>
    <g id="Group_33" data-name="Group 33" transform="translate(1032.951 557.428)">
      <g id="Group_32" data-name="Group 32" transform="translate(0)">
        <g id="Group_31" data-name="Group 31">
          <g id="Group_30" data-name="Group 30" clip-path="url(#clip-path-4)">
            <g id="Group_29" data-name="Group 29" transform="translate(0 3.832)">
              <g id="Group_28" data-name="Group 28">
                <g id="Group_27" data-name="Group 27">
                  <path id="Path_1327" data-name="Path 1327" d="M987.968,1224.786l-.248-41.253,147.875-77.547.248,41.253-48.053,25.248.5,126.69-51.769,27.277-.5-126.69-48.053,25.023m151.1-124.211-154.811,81.379.248,48.467,48.053-25.248.5,126.69,58.7-30.884-.5-126.69,48.053-25.248-.248-48.467" transform="translate(-984.253 -572.85)" fill="#fff"/>
                  <path id="Path_1328" data-name="Path 1328" d="M1224.662,1177.084c-6.44,3.381-12.385,4.959-17.834,4.283-5.2-.451-9.412-3.156-12.633-7.664s-4.706-11.046-4.706-19.387a63.727,63.727,0,0,1,4.706-24.346,78.686,78.686,0,0,1,12.633-20.74,59.593,59.593,0,0,1,17.587-14.2c6.44-3.381,12.385-4.959,17.834-4.283a17.711,17.711,0,0,1,12.632,7.665c3.22,4.508,4.706,11.046,4.706,19.387a63.725,63.725,0,0,1-4.706,24.346,78.684,78.684,0,0,1-12.632,20.739,56.991,56.991,0,0,1-17.587,14.2m-.248-85.663a69.4,69.4,0,0,0-19.568,15.78,85.152,85.152,0,0,0-13.871,22.994,64.625,64.625,0,0,0-4.954,26.149c.248,8.792,1.734,16.005,5.2,20.74a19.019,19.019,0,0,0,13.871,8.341c5.7.676,12.385-.9,19.568-4.734a69.4,69.4,0,0,0,19.568-15.78,85.147,85.147,0,0,0,13.871-22.994,64.626,64.626,0,0,0,4.954-26.15c0-9.017-1.734-16.005-5.2-20.739a19.02,19.02,0,0,0-13.871-8.341c-5.7-.676-12.385.9-19.568,4.734m.5,132.326c-17.339,9.017-32.944,13.526-46.815,13.3-13.624-.225-24.522-5.185-32.448-14.2-7.679-9.243-11.89-22.317-11.89-39a123.394,123.394,0,0,1,11.642-51.4,175.134,175.134,0,0,1,32.2-48.241,173.351,173.351,0,0,1,46.815-35.843c17.339-9.017,32.944-13.526,46.815-13.3,13.623.225,24.522,5.185,32.448,14.2,7.678,9.242,11.889,22.317,11.889,39a123.391,123.391,0,0,1-11.642,51.4,175.13,175.13,0,0,1-32.2,48.241,172.619,172.619,0,0,1-46.815,35.843m-.5-179.215a180.557,180.557,0,0,0-48.3,37.2,190.592,190.592,0,0,0-33.687,50.27c-8.174,18.034-12.137,36.068-12.137,53.426s4.211,31.109,12.385,40.8,19.568,14.653,33.687,14.878c14.367.225,30.467-4.283,48.3-13.751a180.554,180.554,0,0,0,48.3-37.2,184.752,184.752,0,0,0,33.687-50.27c8.174-18.034,12.137-36.068,12.137-53.426s-4.211-31.109-12.385-40.8-19.568-14.653-33.935-14.878c-14.119-.225-30.219,4.283-48.053,13.751" transform="translate(-973.249 -571.36)" fill="#fff"/>
                  <path id="Path_1329" data-name="Path 1329" d="M1409.414,1070.435c-6.44,3.381-12.385,4.959-17.834,4.283-5.2-.451-9.412-3.156-12.632-7.665s-4.706-11.046-4.706-19.387a63.726,63.726,0,0,1,4.706-24.346,67.493,67.493,0,0,1,12.632-20.739,59.59,59.59,0,0,1,17.586-14.2c6.44-3.381,12.385-4.959,17.834-4.283a17.711,17.711,0,0,1,12.633,7.665c3.22,4.508,4.706,11.046,4.706,19.387a63.728,63.728,0,0,1-4.706,24.346A72.652,72.652,0,0,1,1427,1056.234a63.4,63.4,0,0,1-17.586,14.2m-.248-85.662a69.393,69.393,0,0,0-19.568,15.78,85.15,85.15,0,0,0-13.871,22.994,64.623,64.623,0,0,0-4.954,26.15c0,9.017,1.734,16.005,5.2,20.739a19.02,19.02,0,0,0,13.871,8.341c5.7.676,12.385-.9,19.568-4.734a69.4,69.4,0,0,0,19.568-15.78,85.151,85.151,0,0,0,13.871-22.994,64.625,64.625,0,0,0,4.954-26.15c0-9.017-1.734-16.005-5.2-20.739a19.021,19.021,0,0,0-13.871-8.341c-5.945-.676-12.385.9-19.568,4.734m.5,132.326c-17.339,9.017-32.944,13.526-46.815,13.3-13.623-.225-24.77-5.185-32.448-14.2-7.679-9.242-11.89-22.317-11.89-39a123.39,123.39,0,0,1,11.642-51.4,179.756,179.756,0,0,1,78.768-84.084c17.339-9.017,32.944-13.526,46.815-13.3,13.623.225,24.522,5.185,32.448,14.2,7.678,9.243,11.889,22.317,11.889,39a123.393,123.393,0,0,1-11.642,51.4,175.138,175.138,0,0,1-32.2,48.241,171.522,171.522,0,0,1-46.567,35.843m-.743-179.215a180.55,180.55,0,0,0-48.3,37.2,184.759,184.759,0,0,0-33.687,50.27c-8.174,18.034-12.137,36.069-12.137,53.426s4.211,31.109,12.385,40.8,19.568,14.653,33.935,14.878,30.467-4.283,48.3-13.751a180.542,180.542,0,0,0,48.3-37.2,190.593,190.593,0,0,0,33.687-50.27c8.174-18.034,12.137-36.069,12.137-53.427s-4.211-31.109-12.385-40.8-19.568-14.653-33.687-14.878c-14.366-.225-30.714,4.509-48.549,13.751" transform="translate(-959.348 -569.085)" fill="#fff"/>
                  <path id="Path_1330" data-name="Path 1330" d="M1509.48,1051.52l-.5-167.718,51.769-27.277.5,126.69,74.062-38.774.248,41.253L1509.48,1051.52m54.741-200.4L1505.517,882l.5,175.157,132.766-69.883-.248-48.467-74.061,39-.248-126.69" transform="translate(-944.978 -567.527)" fill="#fff"/>
                  <path id="Path_1331" data-name="Path 1331" d="M1704.424,905.439c7.926-4.283,13.623-7.89,17.091-11.5,4.954-4.959,5.945-9.017,5.945-11.722,0-2.931-1.238-6.537-7.678-5.861q-6.688.676-21.55,5.41a244.755,244.755,0,0,1-31.458,7.664c-8.174,1.127-15.357-.225-21.3-4.058s-8.917-11.722-8.917-23.67c0-10.37,2.725-21.416,8.174-32.687,5.449-11.5,13.871-22.543,25.017-33.363s25.017-20.514,41.118-29.08a180.887,180.887,0,0,1,32.7-13.526c10.156-2.931,19.073-4.283,27-3.832l-15.109,46.664a98.436,98.436,0,0,0-44.833,11.5c-15.357,8.115-23.036,16.456-23.036,24.8,0,2.93,1.238,6.312,7.431,5.41,4.211-.451,11.394-2.254,21.054-5.41a213.886,213.886,0,0,1,31.457-8.115,32.126,32.126,0,0,1,21.8,3.607c5.945,3.607,9.165,11.5,9.165,23.444,0,10.37-2.725,21.416-8.174,32.687s-13.871,22.543-25.017,33.363a173.723,173.723,0,0,1-41.118,29.08,204.847,204.847,0,0,1-39.384,16.005c-11.889,3.381-22.045,4.734-29.971,3.832l16.348-47.34a91.851,91.851,0,0,0,25.017-2.48,133.979,133.979,0,0,0,28.237-10.82m6.44-142.47c-16.6,8.792-30.715,18.711-42.356,29.982s-20.559,23.219-26.5,35.392-8.917,24.121-8.917,35.167c0,12.849,3.468,21.416,9.908,25.473s14.119,5.41,22.788,4.283a249.273,249.273,0,0,0,31.953-7.665c9.66-2.931,16.843-4.734,20.807-5.185,3.715-.451,5.449.676,5.449,3.607,0,1.578-.5,3.832-3.963,7.439-2.972,2.93-8.174,6.537-15.6,10.37a107.75,107.75,0,0,1-27.494,10.144,89.3,89.3,0,0,1-25.761,2.48l-1.734-.225-19.073,55.455,1.238.225c8.422,1.127,19.32-.225,32.2-3.832a204.088,204.088,0,0,0,40.127-16.231c16.6-8.792,30.962-18.936,42.356-30.207,11.642-11.5,20.559-23.444,26.5-35.392,5.945-12.173,8.917-23.9,8.917-34.941,0-12.849-3.468-21.416-10.156-25.473-6.44-4.058-14.366-5.185-23.036-3.832s-19.32,4.058-31.953,8.115c-9.66,3.156-16.348,4.959-20.559,5.41-5.2.676-5.2-2.254-5.2-3.381,0-5.861,6.44-12.4,19.568-19.161a95.192,95.192,0,0,1,44.833-11.046h1.734l17.834-54.554h-1.486a84.178,84.178,0,0,0-29.228,4.058,183.111,183.111,0,0,0-33.192,13.526" transform="translate(-935.572 -565.269)" fill="#fff"/>
                  <path id="Path_1332" data-name="Path 1332" d="M1787.043,890.537l-.5-167.718,129.794-68.079.247,39.9-79.263,41.253v23.67l69.355-36.519v37.872l-69.355,36.519v26.15l81.988-43.057.247,39.9-132.518,70.108M1919.808,649.1,1783.08,721.016l.5,175.157,139.7-73.489-.248-47.34L1841.041,818.4V799.464l69.355-36.519-.248-45.311-69.355,36.519V737.7l79.016-41.479V649.1" transform="translate(-924.065 -563.217)" fill="#fff"/>
                  <path id="Path_1333" data-name="Path 1333" d="M1921.776,685.78l-.248-41.253L2069.4,566.98l.247,41.253L2021.6,633.481l.5,126.69-51.769,27.277-.5-126.69-48.053,25.022m151.1-124.436L1918.06,642.723l.248,48.467,48.053-25.248.5,126.69,58.7-30.884-.5-126.69,48.053-25.248-.248-48.467" transform="translate(-913.895 -561.344)" fill="#fff"/>
                </g>
              </g>
            </g>
          </g>
        </g>
      </g>
    </g>
    <g id="Group_40" data-name="Group 40" transform="translate(1050.29 772.486)">
      <g id="Group_39" data-name="Group 39">
        <g id="Group_38" data-name="Group 38">
          <g id="Group_37" data-name="Group 37" clip-path="url(#clip-path-5)">
            <g id="Group_36" data-name="Group 36" transform="translate(0 4.058)">
              <g id="Group_35" data-name="Group 35">
                <g id="Group_34" data-name="Group 34">
                  <path id="Path_1335" data-name="Path 1335" d="M1003.844,1444.532l-.248-41.253,147.875-77.547.248,41.253-48.053,25.248.5,126.69-51.769,27.277-.5-126.69-48.053,25.023m151.343-124.21L1000.377,1401.7l.248,48.467,48.053-25.248.5,126.69,58.7-30.884-.5-126.69,48.053-25.248-.248-48.467" transform="translate(-1000.377 -792.822)" fill="#fff"/>
                  <path id="Path_1336" data-name="Path 1336" d="M1240.556,1396.83c-6.44,3.381-12.385,4.96-17.834,4.283-5.2-.451-9.412-3.156-12.633-7.665s-4.706-11.046-4.706-19.387a63.727,63.727,0,0,1,4.706-24.346,67.5,67.5,0,0,1,12.633-20.739,59.59,59.59,0,0,1,17.586-14.2c6.44-3.381,12.385-4.959,17.834-4.283a17.712,17.712,0,0,1,12.632,7.665c3.22,4.509,4.706,11.046,4.706,19.387a63.723,63.723,0,0,1-4.706,24.346,67.494,67.494,0,0,1-12.632,20.739,53.92,53.92,0,0,1-17.586,14.2m-.248-85.662a69.391,69.391,0,0,0-19.568,15.78,85.139,85.139,0,0,0-13.871,22.994,64.621,64.621,0,0,0-4.954,26.15c0,9.017,1.734,16.005,5.2,20.739a19.02,19.02,0,0,0,13.871,8.341c5.7.676,12.385-.9,19.568-4.734a69.392,69.392,0,0,0,19.568-15.78,85.147,85.147,0,0,0,13.871-22.994,64.63,64.63,0,0,0,4.954-26.15c0-9.017-1.734-16.005-5.2-20.739a19.019,19.019,0,0,0-13.871-8.341c-5.7-.676-12.385.9-19.568,4.734m.5,132.551c-17.339,9.017-32.944,13.526-46.815,13.3-13.623-.225-24.522-5.185-32.448-14.2-7.679-9.243-11.89-22.317-11.89-39a123.393,123.393,0,0,1,11.642-51.4,179.752,179.752,0,0,1,78.768-84.084c17.339-9.017,32.944-13.526,46.815-13.3,13.623.225,24.522,5.185,32.448,14.2,7.678,9.242,11.889,22.317,11.889,39a123.393,123.393,0,0,1-11.642,51.4,179.759,179.759,0,0,1-78.768,84.085m-.5-179.44a180.545,180.545,0,0,0-48.3,37.2,184.754,184.754,0,0,0-33.687,50.27c-8.174,18.034-12.137,36.068-12.137,53.426s4.211,31.109,12.385,40.8,19.568,14.653,33.934,14.878,30.467-4.283,48.3-13.751a180.552,180.552,0,0,0,48.3-37.2,190.583,190.583,0,0,0,33.687-50.27c8.174-18.034,12.137-36.068,12.137-53.426s-4.211-31.109-12.385-40.8-19.568-14.653-33.687-14.878c-14.614-.225-30.715,4.509-48.549,13.751" transform="translate(-989.391 -791.332)" fill="#fff"/>
                  <path id="Path_1337" data-name="Path 1337" d="M1425.308,1290.182c-6.44,3.381-12.385,4.959-17.834,4.283-5.2-.451-9.412-3.156-12.632-7.665s-4.706-11.046-4.706-19.387a63.724,63.724,0,0,1,4.706-24.346,78.682,78.682,0,0,1,12.632-20.739,59.591,59.591,0,0,1,17.586-14.2c6.44-3.381,12.385-4.959,17.834-4.283a17.711,17.711,0,0,1,12.632,7.665c3.22,4.509,4.706,11.046,4.706,19.387a63.726,63.726,0,0,1-4.706,24.346,78.678,78.678,0,0,1-12.632,20.739,59.593,59.593,0,0,1-17.586,14.2m-.248-85.662a69.393,69.393,0,0,0-19.568,15.78,85.15,85.15,0,0,0-13.871,22.994,64.63,64.63,0,0,0-4.954,26.15c0,9.017,1.734,16.005,5.2,20.739a19.019,19.019,0,0,0,13.871,8.341c5.7.676,12.385-.9,19.568-4.734a69.388,69.388,0,0,0,19.568-15.78,85.138,85.138,0,0,0,13.871-22.994,64.625,64.625,0,0,0,4.954-26.149c0-9.017-1.734-16.005-5.2-20.739a19.02,19.02,0,0,0-13.871-8.341c-5.7-.676-12.385.9-19.568,4.734m.5,132.551c-17.339,9.017-32.944,13.526-46.815,13.3-13.623-.225-24.522-5.185-32.448-14.2-7.926-9.243-11.889-22.318-11.889-39a123.392,123.392,0,0,1,11.642-51.4,175.134,175.134,0,0,1,32.2-48.242,173.351,173.351,0,0,1,46.815-35.843c17.339-9.017,32.944-13.526,46.815-13.3,13.623.225,24.522,5.185,32.448,14.2,7.926,9.243,11.889,22.317,11.889,39a123.391,123.391,0,0,1-11.642,51.4,175.127,175.127,0,0,1-32.2,48.242,186.468,186.468,0,0,1-46.815,35.843m-.743-179.44a180.542,180.542,0,0,0-48.3,37.2,190.594,190.594,0,0,0-33.687,50.27c-8.174,18.034-12.137,36.069-12.137,53.426s4.211,31.109,12.385,40.8,19.568,14.653,33.687,14.878c14.366.225,30.467-4.283,48.3-13.751a180.547,180.547,0,0,0,48.3-37.2,190.59,190.59,0,0,0,33.687-50.27c8.174-18.034,12.137-36.068,12.137-53.426s-4.211-31.109-12.385-40.8-19.568-14.653-33.687-14.878-30.467,4.509-48.3,13.751" transform="translate(-975.489 -789.057)" fill="#fff"/>
                  <path id="Path_1338" data-name="Path 1338" d="M1525.6,1271.492l-.5-167.718,51.769-27.277.5,126.69,74.062-38.774.248,41.253L1525.6,1271.492m54.741-200.63-58.7,30.883.5,175.157,132.766-69.657-.248-48.467-74.062,38.774-.248-126.69" transform="translate(-961.102 -787.499)" fill="#fff"/>
                  <path id="Path_1339" data-name="Path 1339" d="M1720.3,1125.411c7.926-4.283,13.624-7.89,17.091-11.5,4.954-4.959,5.945-9.017,5.945-11.722,0-2.931-1.239-6.537-7.678-5.861q-6.688.676-21.55,5.41a235.329,235.329,0,0,1-31.458,7.665c-8.174,1.127-15.357-.225-21.3-4.058s-8.917-11.722-8.917-23.67c0-10.37,2.724-21.416,8.174-32.687,5.449-11.5,13.871-22.543,25.017-33.363s25.017-20.514,41.118-29.08a180.887,180.887,0,0,1,32.7-13.526c10.156-2.93,19.073-4.283,26.751-3.832l-15.109,46.664a98.437,98.437,0,0,0-44.833,11.5c-15.357,8.115-23.036,16.456-23.036,24.8,0,2.931,1.239,6.312,7.431,5.41,4.211-.451,11.394-2.254,21.054-5.41,12.385-4.058,22.788-6.763,31.458-8.115a32.126,32.126,0,0,1,21.8,3.607c5.945,3.607,9.165,11.5,9.165,23.445,0,10.37-2.724,21.416-8.174,32.687s-13.871,22.543-25.017,33.363a173.723,173.723,0,0,1-41.118,29.08,204.86,204.86,0,0,1-39.384,16.005c-11.889,3.381-22.045,4.734-29.971,3.832l16.348-47.34a91.848,91.848,0,0,0,25.017-2.48,138.063,138.063,0,0,0,28.485-10.82m6.688-142.7c-16.6,8.792-30.962,18.71-42.356,29.982-11.642,11.271-20.559,23.219-26.5,35.392s-8.917,24.121-8.917,35.167c0,12.849,3.468,21.416,9.908,25.473s14.119,5.41,22.788,4.283a249.251,249.251,0,0,0,31.953-7.665c9.66-2.931,16.843-4.734,20.807-5.185,3.715-.451,5.449.676,5.449,3.607,0,1.578-.5,3.832-3.963,7.439-2.972,2.93-8.174,6.537-15.6,10.37a107.745,107.745,0,0,1-27.494,10.144,88.556,88.556,0,0,1-25.76,2.48l-1.734-.226-19.073,55.455,1.238.225c8.422,1.127,19.32-.225,32.2-3.832a204.082,204.082,0,0,0,40.127-16.231c16.6-8.792,30.962-18.936,42.356-30.207,11.642-11.5,20.559-23.444,26.5-35.392,5.945-12.173,8.917-23.9,8.917-34.941,0-12.849-3.468-21.416-10.156-25.473-6.44-4.058-14.366-5.185-23.036-3.832s-19.32,4.058-31.953,8.115c-9.412,3.156-16.348,4.959-20.559,5.41-5.2.676-5.2-2.254-5.2-3.381,0-5.861,6.44-12.4,19.568-19.161a95.191,95.191,0,0,1,44.833-11.046h1.734l17.834-54.553h-1.239a84.175,84.175,0,0,0-29.228,4.058,165.662,165.662,0,0,0-33.439,13.526" transform="translate(-951.696 -785.241)" fill="#fff"/>
                  <path id="Path_1340" data-name="Path 1340" d="M1802.936,1110.284l-.5-167.718,129.793-68.079.248,39.9-79.016,41.479v23.67l69.355-36.519v37.872l-69.355,36.519v26.15l81.988-43.057.247,39.9-132.766,69.882M1935.7,868.851l-136.729,71.911.5,175.157,139.7-73.489-.248-47.34-81.988,43.057v-18.936l69.355-36.519-.248-45.311L1856.687,973.9V957.444l79.016-41.479V868.851" transform="translate(-940.206 -783.189)" fill="#fff"/>
                  <path id="Path_1341" data-name="Path 1341" d="M1937.669,905.531l-.248-41.253L2085.3,786.731l.248,41.253-48.053,25.248.5,126.69-51.769,27.277-.5-126.69-48.053,25.022m151.1-124.211L1933.954,862.7l.247,48.467,48.053-25.248.5,126.69,58.7-30.883-.5-126.69,48.053-25.248-.248-48.467" transform="translate(-930.036 -781.321)" fill="#fff"/>
                </g>
              </g>
            </g>
          </g>
        </g>
      </g>
    </g>
    <g id="Group_47" data-name="Group 47" transform="translate(1057.473 968.833)">
      <g id="Group_46" data-name="Group 46" transform="translate(0)">
        <g id="Group_45" data-name="Group 45">
          <g id="Group_44" data-name="Group 44" clip-path="url(#clip-path-6)">
            <g id="Group_43" data-name="Group 43" transform="translate(0 4.058)">
              <g id="Group_42" data-name="Group 42">
                <g id="Group_41" data-name="Group 41">
                  <path id="Path_1343" data-name="Path 1343" d="M1010.772,1645.161l-.248-41.253L1158.4,1526.36l.248,41.253-48.053,25.248.5,126.69-51.769,27.277-.5-126.69-48.053,25.023m151.1-124.211-154.811,81.379.248,48.467,48.053-25.248.5,126.69,58.7-30.884-.5-126.69,48.053-25.248-.248-48.467" transform="translate(-1007.056 -993.45)" fill="#fff"/>
                  <path id="Path_1344" data-name="Path 1344" d="M1247.466,1597.454c-6.44,3.382-12.385,4.96-17.834,4.283-5.2-.451-9.412-3.156-12.633-7.665s-4.706-11.046-4.706-19.387A63.725,63.725,0,0,1,1217,1550.34a79.97,79.97,0,0,1,12.633-20.965,59.586,59.586,0,0,1,17.586-14.2c6.44-3.381,12.385-4.959,17.834-4.283a17.712,17.712,0,0,1,12.632,7.664c3.22,4.509,4.706,11.046,4.706,19.387a63.723,63.723,0,0,1-4.706,24.346,78.68,78.68,0,0,1-12.632,20.739,51.866,51.866,0,0,1-17.586,14.427m-.248-85.662a69.394,69.394,0,0,0-19.568,15.78,79.314,79.314,0,0,0-13.871,22.994,64.625,64.625,0,0,0-4.954,26.15c0,9.017,1.734,16.005,5.2,20.739a19.019,19.019,0,0,0,13.871,8.341c5.7.676,12.385-.9,19.568-4.734a69.389,69.389,0,0,0,19.568-15.78,85.145,85.145,0,0,0,13.871-22.994,64.627,64.627,0,0,0,4.954-26.15c0-9.017-1.734-16.005-5.2-20.739a19.02,19.02,0,0,0-13.871-8.341c-5.7-.676-12.385.9-19.568,4.734m.5,132.551c-17.339,9.017-32.944,13.526-46.815,13.3-13.623-.225-24.522-5.185-32.448-14.2-7.926-9.242-11.889-22.317-11.889-39a123.391,123.391,0,0,1,11.642-51.4,175.13,175.13,0,0,1,32.2-48.241,173.353,173.353,0,0,1,46.815-35.843c17.339-9.017,32.944-13.526,46.815-13.3,13.623.225,24.522,5.185,32.448,14.2,7.926,9.243,11.889,22.317,11.889,39a123.392,123.392,0,0,1-11.642,51.4,175.131,175.131,0,0,1-32.2,48.242,182.147,182.147,0,0,1-46.815,35.843m-.5-179.44a180.544,180.544,0,0,0-48.3,37.2,190.588,190.588,0,0,0-33.687,50.27c-8.174,18.034-12.137,36.069-12.137,53.426s4.211,31.109,12.385,40.8,19.568,14.653,33.687,14.878c14.367.225,30.467-4.283,48.3-13.751a180.551,180.551,0,0,0,48.3-37.2,190.587,190.587,0,0,0,33.687-50.27c8.174-18.034,12.137-36.068,12.137-53.652,0-17.358-4.211-31.109-12.385-40.8s-19.568-14.653-33.687-14.878c-14.366,0-30.467,4.734-48.3,13.977" transform="translate(-996.053 -991.956)" fill="#fff"/>
                  <path id="Path_1345" data-name="Path 1345" d="M1432.218,1490.805c-6.44,3.381-12.385,4.959-17.834,4.283-5.2-.451-9.412-3.156-12.632-7.665s-4.706-11.046-4.706-19.387a63.72,63.72,0,0,1,4.706-24.346,79.972,79.972,0,0,1,12.632-20.965,59.6,59.6,0,0,1,17.586-14.2c6.44-3.381,12.385-4.959,17.834-4.283a17.711,17.711,0,0,1,12.633,7.665c3.22,4.509,4.706,11.046,4.706,19.387a63.727,63.727,0,0,1-4.706,24.346,67.5,67.5,0,0,1-12.633,20.739,57.048,57.048,0,0,1-17.587,14.427m-.248-85.662a69.393,69.393,0,0,0-19.568,15.78,85.144,85.144,0,0,0-13.871,22.994,64.624,64.624,0,0,0-4.954,26.149c0,9.017,1.734,16.005,5.2,20.739a19.019,19.019,0,0,0,13.871,8.341c5.7.676,12.385-.9,19.568-4.734a69.389,69.389,0,0,0,19.568-15.78,85.148,85.148,0,0,0,13.871-22.994,64.62,64.62,0,0,0,4.954-26.149c0-9.017-1.734-16.005-5.2-20.739a19.02,19.02,0,0,0-13.871-8.341c-5.945-.676-12.385.9-19.568,4.734m.5,132.552c-17.339,9.017-32.944,13.526-46.815,13.3-13.623-.225-24.522-5.185-32.448-14.2-7.679-9.242-11.89-22.317-11.89-39a123.39,123.39,0,0,1,11.642-51.4,175.132,175.132,0,0,1,32.2-48.242,173.346,173.346,0,0,1,46.815-35.843c17.339-9.017,32.944-13.526,46.815-13.3,13.623.225,24.522,5.185,32.448,14.2,7.679,9.243,11.89,22.317,11.89,39a123.392,123.392,0,0,1-11.642,51.4,175.126,175.126,0,0,1-32.2,48.241,186.465,186.465,0,0,1-46.815,35.843m-.743-179.44a180.539,180.539,0,0,0-48.3,37.2,184.757,184.757,0,0,0-33.687,50.27c-8.174,18.034-12.137,36.068-12.137,53.426s4.211,31.109,12.385,40.8,19.568,14.653,33.687,14.878c14.366.225,30.467-4.283,48.3-13.751a180.547,180.547,0,0,0,48.3-37.2,184.758,184.758,0,0,0,33.687-50.27c8.174-18.034,12.137-36.068,12.137-53.652,0-17.358-4.211-31.109-12.385-40.8s-19.568-14.653-33.687-14.878c-14.119,0-30.467,4.734-48.3,13.976" transform="translate(-982.152 -989.68)" fill="#fff"/>
                  <path id="Path_1346" data-name="Path 1346" d="M1532.284,1472.12l-.5-167.718,51.769-27.277.5,126.69,74.062-39,.247,41.253-126.078,66.05m54.741-200.63-58.7,30.884.5,175.157,132.766-69.882-.248-48.467-74.062,39-.248-126.69" transform="translate(-967.782 -988.127)" fill="#fff"/>
                  <path id="Path_1347" data-name="Path 1347" d="M1727.228,1326.039c7.926-4.283,13.623-7.89,17.091-11.5,4.954-4.959,5.945-9.017,5.945-11.722,0-2.931-1.238-6.538-7.679-5.861q-6.688.676-21.55,5.41a235.353,235.353,0,0,1-31.458,7.665c-8.174,1.127-15.357-.225-21.3-4.058s-8.917-11.722-8.917-23.67c0-10.37,2.724-21.416,8.174-32.687,5.449-11.5,13.871-22.543,25.017-33.363s25.017-20.514,41.118-29.08a180.9,180.9,0,0,1,32.7-13.526c10.155-2.931,19.073-4.283,27-3.832l-15.109,46.664a98.436,98.436,0,0,0-44.833,11.5c-15.357,8.115-23.036,16.456-23.036,24.8,0,2.931,1.238,6.312,7.431,5.41,4.211-.451,11.394-2.254,21.054-5.41a213.9,213.9,0,0,1,31.458-8.115,32.127,32.127,0,0,1,21.8,3.607c5.945,3.607,9.165,11.5,9.165,23.445,0,10.37-2.724,21.416-8.174,32.687s-13.871,22.543-25.017,33.363a173.73,173.73,0,0,1-41.118,29.08,204.837,204.837,0,0,1-39.384,16.005c-11.889,3.381-22.045,4.734-29.972,3.832l16.348-47.34a91.856,91.856,0,0,0,25.017-2.48,147.536,147.536,0,0,0,28.237-10.821m6.44-142.7c-16.6,8.792-30.714,18.711-42.356,29.982s-20.559,23.219-26.5,35.392-8.917,24.121-8.917,35.167c0,12.849,3.468,21.416,9.908,25.473s14.119,5.41,22.788,4.283a249.269,249.269,0,0,0,31.953-7.665c9.66-2.93,16.6-4.734,20.807-5.185,3.715-.451,5.449.676,5.449,3.607,0,1.578-.5,3.832-3.963,7.439-2.972,2.931-8.174,6.537-15.6,10.37a107.744,107.744,0,0,1-27.494,10.144,89.3,89.3,0,0,1-25.761,2.48l-1.734-.225-19.073,55.455,1.239.225c8.422,1.127,19.32-.225,32.2-3.832a204.078,204.078,0,0,0,40.127-16.231c16.6-8.792,30.962-18.936,42.356-30.207,11.642-11.5,20.559-23.444,26.5-35.392,5.945-12.173,8.917-23.9,8.917-34.941,0-12.849-3.468-21.416-10.155-25.473-6.44-4.058-14.366-5.185-23.036-3.832s-19.32,4.058-31.953,8.115c-9.413,3.156-16.348,4.96-20.559,5.41-5.2.676-5.2-2.254-5.2-3.381,0-5.861,6.44-12.4,19.568-19.161a95.2,95.2,0,0,1,44.833-11.046h1.734l17.834-54.554h-1.486a84.177,84.177,0,0,0-29.229,4.058,183.139,183.139,0,0,0-33.192,13.526" transform="translate(-958.375 -985.869)" fill="#fff"/>
                  <path id="Path_1348" data-name="Path 1348" d="M1809.847,1310.912l-.5-167.718,129.794-68.079.247,39.9-79.015,41.479v23.67l69.355-36.519v37.872l-69.355,36.519v26.15l81.988-43.057.248,39.9-132.766,69.883m132.766-241.433-136.729,71.911.5,175.157,139.7-73.489-.248-47.34-81.988,43.057v-18.936l69.355-36.519-.248-45.311-69.355,36.519v-16.456l79.016-41.479v-47.115" transform="translate(-946.869 -983.817)" fill="#fff"/>
                  <path id="Path_1349" data-name="Path 1349" d="M1944.579,1106.16l-.248-41.253,147.875-77.547.248,41.253L2044.4,1053.86l.5,126.69-51.769,27.276-.5-126.69-48.053,25.022m151.1-124.211-154.811,81.379.248,48.467,48.053-25.248.5,126.69,58.7-30.884-.5-126.69,48.053-25.248-.248-48.467" transform="translate(-936.699 -981.949)" fill="#fff"/>
                </g>
              </g>
            </g>
          </g>
        </g>
      </g>
    </g>
  </g>
</svg>
