<svg xmlns="http://www.w3.org/2000/svg" width="1902.212" height="1308" viewBox="0 0 1902.212 1308">
  <g id="Group_54" data-name="Group 54" transform="translate(0.151)">
    <rect id="Rectangle_172" data-name="Rectangle 172" width="1901" height="1308"/>
    <g id="Group_53" data-name="Group 53" transform="translate(-0.151 25.432)">
      <path id="Subtraction_8" data-name="Subtraction 8" d="M923.494,1001.6h-.029a726.423,726.423,0,0,1-75.6-3.668c-11.82-1.25-23.217-2.843-33.873-4.732-10.89-1.935-21.295-4.224-30.925-6.8a273.176,273.176,0,0,1-27.74-8.978,199.794,199.794,0,0,1-24.311-11.265,148.356,148.356,0,0,1-20.633-13.634A116.852,116.852,0,0,1,693.672,936.4c-51.1-60.565-134.023-104.895-246.463-131.761-23.705-5.659-48.926-10.581-74.961-14.635-24.067-3.753-49.457-6.868-75.463-9.262-45.05-4.141-93.069-6.244-142.722-6.244C89.632,774.5,34.72,778.04,0,781V36.508c42.976,38.685,83.891,73.5,125.084,106.437,28.532,22.819,57.279,44.764,85.442,65.226,32.506,23.615,64.947,45.761,96.422,65.82,164.676,104.954,309.753,158.17,431.2,158.17a389.4,389.4,0,0,0,43.248-2.373,347.209,347.209,0,0,0,42.155-7.357A321.274,321.274,0,0,0,864.4,409.692a311.347,311.347,0,0,0,39.3-18.508,320.1,320.1,0,0,0,37.551-24.661,349.582,349.582,0,0,0,35.565-31.207,401.226,401.226,0,0,0,33.354-38.137,479.243,479.243,0,0,0,30.926-45.458c7.1-11.8,14.573-23.368,22.2-34.39,7.465-10.782,15.313-21.351,23.326-31.416,7.863-9.874,16.061-19.478,24.364-28.549,8.247-9,16.77-17.675,25.33-25.78,8.475-8.03,17.3-15.809,26.215-23.12,8.742-7.164,17.832-14.083,27.017-20.565,9.029-6.363,18.362-12.454,27.745-18.106,9.274-5.584,18.826-10.887,28.392-15.761a468.149,468.149,0,0,1,58.405-24.889A499.94,499.94,0,0,1,1364.127,12.4a554.309,554.309,0,0,1,61.03-9.437C1445.032.995,1465.689,0,1486.557,0c16.853,0,34.235.649,51.665,1.93,16.685,1.222,33.877,3.053,51.1,5.441,16.509,2.295,33.379,5.14,50.141,8.46,16.025,3.169,32.447,6.862,48.81,10.973,56.6,14.215,115.24,34.056,174.279,58.966,12.766,5.386,25.691,11.077,38.415,16.909V763.4c-2.4,1.073-4.345,1.934-6.114,2.716-38.283,16.916-82.358,34.523-131,52.339-49.807,18.252-103.008,36.211-158.129,53.38-57.713,17.977-116.316,34.7-174.182,49.71-61.522,15.957-121.8,29.865-179.158,41.335-61.377,12.272-119.6,21.777-173.042,28.252-28.076,3.4-55.25,6.008-80.765,7.75C972.026,1000.686,946.764,1001.6,923.494,1001.6Z" fill="#b721ff"/>
      <path id="Intersection_9" data-name="Intersection 9" d="M0,73.272C23.193,242.6,172.151,373.2,352.457,373.2c176.057,0,322.238-124.554,350.615-288.062q-9.2-9.4-17.466-19.578C647.794,18.906,567.1,0,463.6,0,332.2,0,164.012,30.46,0,73.272Z" transform="matrix(-1, -0.017, 0.017, -1, 1367.903, 1010.139)" fill="#fff"/>
      <path id="Subtraction_9" data-name="Subtraction 9" d="M207.334,316.63a213.771,213.771,0,0,1-41.786-4.112A208.886,208.886,0,0,1,91.41,282.048a207.651,207.651,0,0,1-30.685-24.725,205.039,205.039,0,0,1-25.317-29.968,201.018,201.018,0,0,1-19.115-34.394A198.555,198.555,0,0,1,36.058,0C51.73,1.231,67.881,3.05,84.063,5.405c15.43,2.248,31.284,5.042,47.121,8.307,29.336,6.045,59.689,13.919,90.217,23.41A1191.878,1191.878,0,0,1,376.071,97.84v134a205.513,205.513,0,0,1-32.449,34.907A208.442,208.442,0,0,1,257.759,310.6,212.779,212.779,0,0,1,207.334,316.63Z" transform="translate(1524.894 4.805)" fill="#fff"/>
      <ellipse id="Ellipse_123" data-name="Ellipse 123" cx="111.447" cy="109.333" rx="111.447" ry="109.333" transform="translate(128.504 315.24)" fill="#fff"/>
      <g id="Ellipse_119" data-name="Ellipse 119" transform="translate(1109.853 425.063)" fill="none" stroke="#fff" stroke-width="5">
        <ellipse cx="200.304" cy="195.623" rx="200.304" ry="195.623" stroke="none"/>
        <ellipse cx="200.304" cy="195.623" rx="197.804" ry="193.123" fill="none"/>
      </g>
      <g id="Ellipse_121" data-name="Ellipse 121" transform="translate(695.24 643.729)" fill="none" stroke="#fff" stroke-width="5">
        <ellipse cx="121.487" cy="118.649" rx="121.487" ry="118.649" stroke="none"/>
        <ellipse cx="121.487" cy="118.649" rx="118.987" ry="116.149" fill="none"/>
      </g>
      <path id="Path_1372" data-name="Path 1372" d="M1141.238-19096.3s-565.016-324.838-764.957-52.926-554.975,282.869-721.281,167.9" transform="translate(759.727 19464.381)" fill="none" stroke="#000" stroke-width="5"/>
      <path id="Path_1370" data-name="Path 1370" d="M849.737-18879.742s-380.025-105.852-501.484,58.395S-182.431-18649.8-345-18671.7" transform="translate(1051.229 19457.689)" fill="none" stroke="#000" stroke-width="5"/>
      <path id="Path_1371" data-name="Path 1371" d="M1456.164-18988.592s-516.268-162.42-632.361-23.727-365.989,239.068-708.365,233.6S-255.47-19019.615-345-19023.266" transform="translate(444.802 19460.697)" fill="none" stroke="#000" stroke-width="5"/>
    </g>
  </g>
</svg>
