<?xml version="1.0" encoding="utf-8"?>
<!-- Generator: Adobe Illustrator 22.0.0, SVG Export Plug-In . SVG Version: 6.00 Build 0)  -->
<svg version="1.1" id="Layer_1" xmlns="http://www.w3.org/2000/svg" xmlns:xlink="http://www.w3.org/1999/xlink" x="0px" y="0px"
	 viewBox="0 0 1472.7 1505" style="enable-background:new 0 0 1472.7 1505;" xml:space="preserve">
<style type="text/css">
	.st0{fill:#FFFFFF;}
</style>
<title>Logo Rachel</title>
<g id="Layer_2_1_">
	<g id="Layer_1-2">
		<path class="st0" d="M679.5,0L0,376.9l679.5,376.9V0z M619.3,667.3L96,376.9L626.2,82.8L619.3,667.3z"/>
		<path class="st0" d="M793.2,2.8v753.9l679.5-376.9L793.2,2.8z M851.9,87.5l530.3,294.1L858.8,671.9L851.9,87.5z"/>
		<path class="st0" d="M265.4,379.7L546,535.4V224L265.4,379.7z M519,500.4L302.8,380.5l219-121.5L519,500.4z"/>
		<path class="st0" d="M793.2,751.1V1505l679.5-376.9L793.2,751.1z M851.9,835.8l530.3,294.2l-523.4,290.3L851.9,835.8z"/>
		<polygon class="st0" points="0,1125.3 47,1151.3 620.8,833 620.8,833 620.8,833 620.8,833.1 620.8,1469.7 679.5,1502.2 
			679.5,748.3 		"/>
		<rect x="754" y="2.8" class="st0" width="39.2" height="1502.2"/>
		<rect x="679.5" class="st0" width="39.2" height="1502.2"/>
	</g>
</g>
</svg>
